<mxfile host="app.diagrams.net" agent="Mozilla/5.0 (Macintosh; Intel Mac OS X 10.15; rv:133.0) Gecko/20100101 Firefox/133.0" version="24.9.2">
  <diagram name="Página-1" id="Ti_tvSoZDwUCua1Iqu4d">
    <mxGraphModel dx="2726" dy="1763" grid="1" gridSize="10" guides="1" tooltips="1" connect="1" arrows="1" fold="1" page="1" pageScale="1" pageWidth="827" pageHeight="1169" math="0" shadow="0">
      <root>
        <mxCell id="0" />
        <mxCell id="1" parent="0" />
        <mxCell id="KpwfNPayoWUvbbuKePMo-2" value="" style="verticalAlign=top;align=left;spacingTop=8;spacingLeft=2;spacingRight=12;shape=cube;size=10;direction=south;fontStyle=4;html=1;whiteSpace=wrap;" vertex="1" parent="1">
          <mxGeometry x="195" y="800" width="1230" height="280" as="geometry" />
        </mxCell>
        <mxCell id="KpwfNPayoWUvbbuKePMo-127" style="edgeStyle=orthogonalEdgeStyle;rounded=0;orthogonalLoop=1;jettySize=auto;html=1;strokeWidth=3;" edge="1" parent="1" source="KpwfNPayoWUvbbuKePMo-3" target="KpwfNPayoWUvbbuKePMo-2">
          <mxGeometry relative="1" as="geometry" />
        </mxCell>
        <mxCell id="KpwfNPayoWUvbbuKePMo-130" value="API REST" style="edgeLabel;html=1;align=center;verticalAlign=middle;resizable=0;points=[];fontSize=20;" vertex="1" connectable="0" parent="KpwfNPayoWUvbbuKePMo-127">
          <mxGeometry x="-0.1588" y="5" relative="1" as="geometry">
            <mxPoint as="offset" />
          </mxGeometry>
        </mxCell>
        <mxCell id="KpwfNPayoWUvbbuKePMo-3" value="" style="verticalAlign=top;align=left;spacingTop=8;spacingLeft=2;spacingRight=12;shape=cube;size=10;direction=south;fontStyle=4;html=1;whiteSpace=wrap;" vertex="1" parent="1">
          <mxGeometry x="205" y="350" width="1205" height="340" as="geometry" />
        </mxCell>
        <mxCell id="KpwfNPayoWUvbbuKePMo-4" value="" style="strokeWidth=2;html=1;shape=mxgraph.flowchart.database;whiteSpace=wrap;" vertex="1" parent="1">
          <mxGeometry x="340" y="1280" width="1000" height="526" as="geometry" />
        </mxCell>
        <mxCell id="KpwfNPayoWUvbbuKePMo-7" value="Servidor WEB" style="text;strokeColor=#666666;fillColor=#f5f5f5;html=1;fontSize=24;fontStyle=1;verticalAlign=middle;align=center;fontFamily=Verdana;fontColor=#333333;" vertex="1" parent="1">
          <mxGeometry x="150" y="330" width="200" height="40" as="geometry" />
        </mxCell>
        <mxCell id="KpwfNPayoWUvbbuKePMo-18" value="&lt;p style=&quot;margin:0px;margin-top:6px;text-align:center;&quot;&gt;&lt;br&gt;&lt;/p&gt;&lt;p style=&quot;margin:0px;margin-top:6px;text-align:center;&quot;&gt;Gestión De Usuarios&lt;/p&gt;" style="align=left;overflow=fill;html=1;dropTarget=0;whiteSpace=wrap;" vertex="1" parent="1">
          <mxGeometry x="235" y="905" width="140" height="70" as="geometry" />
        </mxCell>
        <mxCell id="KpwfNPayoWUvbbuKePMo-19" value="" style="shape=component;jettyWidth=8;jettyHeight=4;" vertex="1" parent="KpwfNPayoWUvbbuKePMo-18">
          <mxGeometry x="1" width="20" height="20" relative="1" as="geometry">
            <mxPoint x="-24" y="4" as="offset" />
          </mxGeometry>
        </mxCell>
        <mxCell id="KpwfNPayoWUvbbuKePMo-20" value="&lt;p style=&quot;margin:0px;margin-top:6px;text-align:center;&quot;&gt;&lt;br&gt;&lt;/p&gt;&lt;p style=&quot;margin:0px;margin-top:6px;text-align:center;&quot;&gt;Gestión de donaciones&lt;/p&gt;" style="align=left;overflow=fill;html=1;dropTarget=0;whiteSpace=wrap;" vertex="1" parent="1">
          <mxGeometry x="455" y="905" width="140" height="70" as="geometry" />
        </mxCell>
        <mxCell id="KpwfNPayoWUvbbuKePMo-21" value="" style="shape=component;jettyWidth=8;jettyHeight=4;" vertex="1" parent="KpwfNPayoWUvbbuKePMo-20">
          <mxGeometry x="1" width="20" height="20" relative="1" as="geometry">
            <mxPoint x="-24" y="4" as="offset" />
          </mxGeometry>
        </mxCell>
        <mxCell id="KpwfNPayoWUvbbuKePMo-22" value="&lt;p style=&quot;margin:0px;margin-top:6px;text-align:center;&quot;&gt;&lt;br&gt;&lt;/p&gt;&lt;p style=&quot;margin:0px;margin-top:6px;text-align:center;&quot;&gt;Gestión De Donadores&lt;/p&gt;" style="align=left;overflow=fill;html=1;dropTarget=0;whiteSpace=wrap;" vertex="1" parent="1">
          <mxGeometry x="655" y="905" width="140" height="70" as="geometry" />
        </mxCell>
        <mxCell id="KpwfNPayoWUvbbuKePMo-23" value="" style="shape=component;jettyWidth=8;jettyHeight=4;" vertex="1" parent="KpwfNPayoWUvbbuKePMo-22">
          <mxGeometry x="1" width="20" height="20" relative="1" as="geometry">
            <mxPoint x="-24" y="4" as="offset" />
          </mxGeometry>
        </mxCell>
        <mxCell id="KpwfNPayoWUvbbuKePMo-24" value="&lt;p style=&quot;margin:0px;margin-top:6px;text-align:center;&quot;&gt;&lt;br&gt;&lt;/p&gt;&lt;p style=&quot;margin:0px;margin-top:6px;text-align:center;&quot;&gt;Gestión De Campañas&lt;/p&gt;" style="align=left;overflow=fill;html=1;dropTarget=0;whiteSpace=wrap;" vertex="1" parent="1">
          <mxGeometry x="1035" y="905" width="140" height="70" as="geometry" />
        </mxCell>
        <mxCell id="KpwfNPayoWUvbbuKePMo-25" value="" style="shape=component;jettyWidth=8;jettyHeight=4;" vertex="1" parent="KpwfNPayoWUvbbuKePMo-24">
          <mxGeometry x="1" width="20" height="20" relative="1" as="geometry">
            <mxPoint x="-24" y="4" as="offset" />
          </mxGeometry>
        </mxCell>
        <mxCell id="KpwfNPayoWUvbbuKePMo-28" value="&lt;p style=&quot;margin:0px;margin-top:6px;text-align:center;&quot;&gt;&lt;br&gt;&lt;/p&gt;&lt;p style=&quot;margin:0px;margin-top:6px;text-align:center;&quot;&gt;Gestión De Transacciones&lt;/p&gt;" style="align=left;overflow=fill;html=1;dropTarget=0;whiteSpace=wrap;" vertex="1" parent="1">
          <mxGeometry x="845" y="905" width="140" height="70" as="geometry" />
        </mxCell>
        <mxCell id="KpwfNPayoWUvbbuKePMo-29" value="" style="shape=component;jettyWidth=8;jettyHeight=4;" vertex="1" parent="KpwfNPayoWUvbbuKePMo-28">
          <mxGeometry x="1" width="20" height="20" relative="1" as="geometry">
            <mxPoint x="-24" y="4" as="offset" />
          </mxGeometry>
        </mxCell>
        <mxCell id="KpwfNPayoWUvbbuKePMo-30" value="&lt;p style=&quot;margin:0px;margin-top:6px;text-align:center;&quot;&gt;&lt;br&gt;&lt;/p&gt;&lt;p style=&quot;margin:0px;margin-top:6px;text-align:center;&quot;&gt;Usuarios&lt;/p&gt;" style="align=left;overflow=fill;html=1;dropTarget=0;whiteSpace=wrap;" vertex="1" parent="1">
          <mxGeometry x="370" y="1510" width="140" height="70" as="geometry" />
        </mxCell>
        <mxCell id="KpwfNPayoWUvbbuKePMo-31" value="" style="shape=component;jettyWidth=8;jettyHeight=4;" vertex="1" parent="KpwfNPayoWUvbbuKePMo-30">
          <mxGeometry x="1" width="20" height="20" relative="1" as="geometry">
            <mxPoint x="-24" y="4" as="offset" />
          </mxGeometry>
        </mxCell>
        <mxCell id="KpwfNPayoWUvbbuKePMo-32" value="&lt;p style=&quot;margin:0px;margin-top:6px;text-align:center;&quot;&gt;&lt;br&gt;&lt;/p&gt;&lt;p style=&quot;margin:0px;margin-top:6px;text-align:center;&quot;&gt;Donaciones&lt;/p&gt;" style="align=left;overflow=fill;html=1;dropTarget=0;whiteSpace=wrap;" vertex="1" parent="1">
          <mxGeometry x="530" y="1600" width="140" height="70" as="geometry" />
        </mxCell>
        <mxCell id="KpwfNPayoWUvbbuKePMo-33" value="" style="shape=component;jettyWidth=8;jettyHeight=4;" vertex="1" parent="KpwfNPayoWUvbbuKePMo-32">
          <mxGeometry x="1" width="20" height="20" relative="1" as="geometry">
            <mxPoint x="-24" y="4" as="offset" />
          </mxGeometry>
        </mxCell>
        <mxCell id="KpwfNPayoWUvbbuKePMo-34" value="&lt;p style=&quot;margin:0px;margin-top:6px;text-align:center;&quot;&gt;&lt;br&gt;&lt;/p&gt;&lt;p style=&quot;margin:0px;margin-top:6px;text-align:center;&quot;&gt;Donadores&lt;/p&gt;" style="align=left;overflow=fill;html=1;dropTarget=0;whiteSpace=wrap;" vertex="1" parent="1">
          <mxGeometry x="700" y="1620" width="140" height="70" as="geometry" />
        </mxCell>
        <mxCell id="KpwfNPayoWUvbbuKePMo-35" value="" style="shape=component;jettyWidth=8;jettyHeight=4;" vertex="1" parent="KpwfNPayoWUvbbuKePMo-34">
          <mxGeometry x="1" width="20" height="20" relative="1" as="geometry">
            <mxPoint x="-24" y="4" as="offset" />
          </mxGeometry>
        </mxCell>
        <mxCell id="KpwfNPayoWUvbbuKePMo-36" value="&lt;p style=&quot;margin:0px;margin-top:6px;text-align:center;&quot;&gt;&lt;br&gt;&lt;/p&gt;&lt;p style=&quot;margin:0px;margin-top:6px;text-align:center;&quot;&gt;Campañas&lt;/p&gt;" style="align=left;overflow=fill;html=1;dropTarget=0;whiteSpace=wrap;" vertex="1" parent="1">
          <mxGeometry x="1050" y="1610" width="140" height="70" as="geometry" />
        </mxCell>
        <mxCell id="KpwfNPayoWUvbbuKePMo-37" value="" style="shape=component;jettyWidth=8;jettyHeight=4;" vertex="1" parent="KpwfNPayoWUvbbuKePMo-36">
          <mxGeometry x="1" width="20" height="20" relative="1" as="geometry">
            <mxPoint x="-24" y="4" as="offset" />
          </mxGeometry>
        </mxCell>
        <mxCell id="KpwfNPayoWUvbbuKePMo-40" value="&lt;p style=&quot;margin:0px;margin-top:6px;text-align:center;&quot;&gt;&lt;br&gt;&lt;/p&gt;&lt;p style=&quot;margin:0px;margin-top:6px;text-align:center;&quot;&gt;Transacciones&lt;/p&gt;" style="align=left;overflow=fill;html=1;dropTarget=0;whiteSpace=wrap;" vertex="1" parent="1">
          <mxGeometry x="870" y="1610" width="140" height="70" as="geometry" />
        </mxCell>
        <mxCell id="KpwfNPayoWUvbbuKePMo-41" value="" style="shape=component;jettyWidth=8;jettyHeight=4;" vertex="1" parent="KpwfNPayoWUvbbuKePMo-40">
          <mxGeometry x="1" width="20" height="20" relative="1" as="geometry">
            <mxPoint x="-24" y="4" as="offset" />
          </mxGeometry>
        </mxCell>
        <mxCell id="KpwfNPayoWUvbbuKePMo-42" value="Servidor de Base de Datos" style="text;strokeColor=#666666;fillColor=#f5f5f5;html=1;fontSize=24;fontStyle=1;verticalAlign=middle;align=center;fontFamily=Verdana;fontColor=#333333;" vertex="1" parent="1">
          <mxGeometry x="585" y="1360" width="510" height="40" as="geometry" />
        </mxCell>
        <mxCell id="KpwfNPayoWUvbbuKePMo-43" value="Backend API" style="text;html=1;fontSize=24;fontStyle=1;verticalAlign=middle;align=center;fontFamily=Verdana;fillColor=#f5f5f5;strokeColor=#666666;fontColor=#333333;" vertex="1" parent="1">
          <mxGeometry x="120" y="780" width="210" height="40" as="geometry" />
        </mxCell>
        <mxCell id="KpwfNPayoWUvbbuKePMo-45" value="" style="shape=umlActor;verticalLabelPosition=bottom;verticalAlign=top;html=1;outlineConnect=0;" vertex="1" parent="1">
          <mxGeometry x="782.5" y="130" width="50" height="100" as="geometry" />
        </mxCell>
        <mxCell id="KpwfNPayoWUvbbuKePMo-48" value="&lt;b&gt;Crear campaña&lt;/b&gt;" style="html=1;dropTarget=0;whiteSpace=wrap;" vertex="1" parent="1">
          <mxGeometry x="817" y="505" width="160" height="80" as="geometry" />
        </mxCell>
        <mxCell id="KpwfNPayoWUvbbuKePMo-49" value="" style="shape=module;jettyWidth=8;jettyHeight=4;" vertex="1" parent="KpwfNPayoWUvbbuKePMo-48">
          <mxGeometry x="1" width="20" height="20" relative="1" as="geometry">
            <mxPoint x="-27" y="7" as="offset" />
          </mxGeometry>
        </mxCell>
        <mxCell id="KpwfNPayoWUvbbuKePMo-50" value="&lt;b&gt;Realizar donacion&lt;br&gt;&lt;/b&gt;" style="html=1;dropTarget=0;whiteSpace=wrap;" vertex="1" parent="1">
          <mxGeometry x="610" y="505" width="160" height="80" as="geometry" />
        </mxCell>
        <mxCell id="KpwfNPayoWUvbbuKePMo-51" value="" style="shape=module;jettyWidth=8;jettyHeight=4;" vertex="1" parent="KpwfNPayoWUvbbuKePMo-50">
          <mxGeometry x="1" width="20" height="20" relative="1" as="geometry">
            <mxPoint x="-27" y="7" as="offset" />
          </mxGeometry>
        </mxCell>
        <mxCell id="KpwfNPayoWUvbbuKePMo-52" value="&lt;b&gt;Crear cuenta&lt;br&gt;&lt;/b&gt;" style="html=1;dropTarget=0;whiteSpace=wrap;" vertex="1" parent="1">
          <mxGeometry x="400" y="505" width="160" height="80" as="geometry" />
        </mxCell>
        <mxCell id="KpwfNPayoWUvbbuKePMo-53" value="" style="shape=module;jettyWidth=8;jettyHeight=4;" vertex="1" parent="KpwfNPayoWUvbbuKePMo-52">
          <mxGeometry x="1" width="20" height="20" relative="1" as="geometry">
            <mxPoint x="-27" y="7" as="offset" />
          </mxGeometry>
        </mxCell>
        <mxCell id="KpwfNPayoWUvbbuKePMo-54" value="&lt;b&gt;Verificar campaña&lt;br&gt;&lt;/b&gt;" style="html=1;dropTarget=0;whiteSpace=wrap;" vertex="1" parent="1">
          <mxGeometry x="1020" y="505" width="160" height="80" as="geometry" />
        </mxCell>
        <mxCell id="KpwfNPayoWUvbbuKePMo-55" value="" style="shape=module;jettyWidth=8;jettyHeight=4;" vertex="1" parent="KpwfNPayoWUvbbuKePMo-54">
          <mxGeometry x="1" width="20" height="20" relative="1" as="geometry">
            <mxPoint x="-27" y="7" as="offset" />
          </mxGeometry>
        </mxCell>
        <mxCell id="KpwfNPayoWUvbbuKePMo-8" value="&lt;b&gt;Inicio de sesion&lt;br&gt;&lt;/b&gt;" style="html=1;dropTarget=0;whiteSpace=wrap;" vertex="1" parent="1">
          <mxGeometry x="220" y="505" width="160" height="80" as="geometry" />
        </mxCell>
        <mxCell id="KpwfNPayoWUvbbuKePMo-9" value="" style="shape=module;jettyWidth=8;jettyHeight=4;" vertex="1" parent="KpwfNPayoWUvbbuKePMo-8">
          <mxGeometry x="1" width="20" height="20" relative="1" as="geometry">
            <mxPoint x="-27" y="7" as="offset" />
          </mxGeometry>
        </mxCell>
        <mxCell id="KpwfNPayoWUvbbuKePMo-87" value="&lt;p style=&quot;margin:0px;margin-top:6px;text-align:center;&quot;&gt;&lt;br&gt;&lt;/p&gt;&lt;p style=&quot;margin:0px;margin-top:6px;text-align:center;&quot;&gt;gestión de anuncios &lt;br&gt;&lt;/p&gt;" style="align=left;overflow=fill;html=1;dropTarget=0;whiteSpace=wrap;" vertex="1" parent="1">
          <mxGeometry x="1215" y="905" width="140" height="70" as="geometry" />
        </mxCell>
        <mxCell id="KpwfNPayoWUvbbuKePMo-88" value="" style="shape=component;jettyWidth=8;jettyHeight=4;" vertex="1" parent="KpwfNPayoWUvbbuKePMo-87">
          <mxGeometry x="1" width="20" height="20" relative="1" as="geometry">
            <mxPoint x="-24" y="4" as="offset" />
          </mxGeometry>
        </mxCell>
        <mxCell id="KpwfNPayoWUvbbuKePMo-89" value="&lt;p style=&quot;margin:0px;margin-top:6px;text-align:center;&quot;&gt;&lt;br&gt;&lt;/p&gt;&lt;p style=&quot;margin:0px;margin-top:6px;text-align:center;&quot;&gt;Anuncios&lt;/p&gt;" style="align=left;overflow=fill;html=1;dropTarget=0;whiteSpace=wrap;" vertex="1" parent="1">
          <mxGeometry x="1180" y="1500" width="140" height="70" as="geometry" />
        </mxCell>
        <mxCell id="KpwfNPayoWUvbbuKePMo-90" value="" style="shape=component;jettyWidth=8;jettyHeight=4;" vertex="1" parent="KpwfNPayoWUvbbuKePMo-89">
          <mxGeometry x="1" width="20" height="20" relative="1" as="geometry">
            <mxPoint x="-24" y="4" as="offset" />
          </mxGeometry>
        </mxCell>
        <mxCell id="KpwfNPayoWUvbbuKePMo-104" value="&lt;b&gt;Ver anuncios&lt;br&gt;&lt;/b&gt;" style="html=1;dropTarget=0;whiteSpace=wrap;" vertex="1" parent="1">
          <mxGeometry x="1220" y="505" width="160" height="80" as="geometry" />
        </mxCell>
        <mxCell id="KpwfNPayoWUvbbuKePMo-105" value="" style="shape=module;jettyWidth=8;jettyHeight=4;" vertex="1" parent="KpwfNPayoWUvbbuKePMo-104">
          <mxGeometry x="1" width="20" height="20" relative="1" as="geometry">
            <mxPoint x="-27" y="7" as="offset" />
          </mxGeometry>
        </mxCell>
        <mxCell id="KpwfNPayoWUvbbuKePMo-128" style="edgeStyle=orthogonalEdgeStyle;rounded=0;orthogonalLoop=1;jettySize=auto;html=1;entryX=0.47;entryY=0.006;entryDx=0;entryDy=0;entryPerimeter=0;strokeWidth=3;" edge="1" parent="1" source="KpwfNPayoWUvbbuKePMo-2" target="KpwfNPayoWUvbbuKePMo-4">
          <mxGeometry relative="1" as="geometry" />
        </mxCell>
        <mxCell id="KpwfNPayoWUvbbuKePMo-129" value="&lt;div&gt;SQL&lt;/div&gt;" style="edgeLabel;html=1;align=center;verticalAlign=middle;resizable=0;points=[];fontSize=22;" vertex="1" connectable="0" parent="KpwfNPayoWUvbbuKePMo-128">
          <mxGeometry x="-0.3764" y="10" relative="1" as="geometry">
            <mxPoint x="-10" y="1" as="offset" />
          </mxGeometry>
        </mxCell>
        <mxCell id="KpwfNPayoWUvbbuKePMo-131" style="edgeStyle=orthogonalEdgeStyle;rounded=0;orthogonalLoop=1;jettySize=auto;html=1;strokeWidth=3;fontSize=20;" edge="1" parent="1" source="KpwfNPayoWUvbbuKePMo-45" target="KpwfNPayoWUvbbuKePMo-3">
          <mxGeometry relative="1" as="geometry">
            <mxPoint x="910" y="290" as="targetPoint" />
          </mxGeometry>
        </mxCell>
        <mxCell id="KpwfNPayoWUvbbuKePMo-134" value="HTTPS" style="edgeLabel;html=1;align=center;verticalAlign=middle;resizable=0;points=[];fontSize=20;" vertex="1" connectable="0" parent="KpwfNPayoWUvbbuKePMo-131">
          <mxGeometry x="-0.2083" relative="1" as="geometry">
            <mxPoint as="offset" />
          </mxGeometry>
        </mxCell>
        <mxCell id="KpwfNPayoWUvbbuKePMo-132" value="Usuario Final" style="text;html=1;align=center;verticalAlign=middle;whiteSpace=wrap;rounded=0;fontSize=20;" vertex="1" parent="1">
          <mxGeometry x="777.5" y="90" width="60" height="30" as="geometry" />
        </mxCell>
      </root>
    </mxGraphModel>
  </diagram>
</mxfile>
